<svg width="36" height="35" viewBox="0 0 36 35" fill="none" xmlns="http://www.w3.org/2000/svg">
<path d="M32.4004 4.1999H30.2404V2.7999C30.2404 2.4286 30.0887 2.0725 29.8187 1.80995C29.5486 1.5474 29.1823 1.3999 28.8004 1.3999H27.3604C26.9785 1.3999 26.6122 1.5474 26.3422 1.80995C26.0721 2.0725 25.9204 2.4286 25.9204 2.7999V4.1999H20.1604V2.7999C20.1604 2.4286 20.0087 2.0725 19.7387 1.80995C19.4686 1.5474 19.1023 1.3999 18.7204 1.3999H17.2804C16.8985 1.3999 16.5323 1.5474 16.2622 1.80995C15.9921 2.0725 15.8404 2.4286 15.8404 2.7999V4.1999H10.0804V2.7999C10.0804 2.4286 9.92872 2.0725 9.65866 1.80995C9.38861 1.5474 9.02234 1.3999 8.64043 1.3999H7.20043C6.81852 1.3999 6.45225 1.5474 6.1822 1.80995C5.91214 2.0725 5.76043 2.4286 5.76043 2.7999V4.1999H3.60043C3.02756 4.1999 2.47816 4.42115 2.07308 4.81498C1.668 5.2088 1.44043 5.74295 1.44043 6.2999V31.4999C1.44043 32.0569 1.668 32.591 2.07308 32.9848C2.47816 33.3787 3.02756 33.5999 3.60043 33.5999H26.6404C28.7398 33.5962 30.7521 32.7838 32.2365 31.3405C33.721 29.8973 34.5566 27.9409 34.5604 25.8999C34.5604 25.8999 34.5604 25.7879 34.5604 25.7179V6.2999C34.5604 5.74295 34.3329 5.2088 33.9278 4.81498C33.5227 4.42115 32.9733 4.1999 32.4004 4.1999ZM27.3604 2.7999H28.8004V6.9999H27.3604V2.7999ZM17.2804 2.7999H18.7204V4.8159C18.7204 4.8159 18.7204 4.8159 18.7204 4.8999C18.7204 4.9839 18.7204 4.8999 18.7204 4.9979V6.9999H17.2804V2.7999ZM7.20043 2.7999H8.64043V6.9999H7.20043V2.7999ZM3.60043 5.5999H5.76043V6.9999C5.76043 7.37121 5.91214 7.7273 6.1822 7.98985C6.45225 8.2524 6.81852 8.3999 7.20043 8.3999H8.64043C9.02234 8.3999 9.38861 8.2524 9.65866 7.98985C9.92872 7.7273 10.0804 7.37121 10.0804 6.9999V5.5999H15.8404V6.9999C15.8404 7.37121 15.9921 7.7273 16.2622 7.98985C16.5323 8.2524 16.8985 8.3999 17.2804 8.3999H18.7204C19.1023 8.3999 19.4686 8.2524 19.7387 7.98985C20.0087 7.7273 20.1604 7.37121 20.1604 6.9999V5.5999H25.9204V6.9999C25.9204 7.37121 26.0721 7.7273 26.3422 7.98985C26.6122 8.2524 26.9785 8.3999 27.3604 8.3999H28.8004C29.1823 8.3999 29.5486 8.2524 29.8187 7.98985C30.0887 7.7273 30.2404 7.37121 30.2404 6.9999V5.5999H32.4004C32.5914 5.5999 32.7745 5.67365 32.9096 5.80493C33.0446 5.9362 33.1204 6.11425 33.1204 6.2999V11.1999H2.88043V6.2999C2.88043 6.11425 2.95629 5.9362 3.09131 5.80493C3.22634 5.67365 3.40947 5.5999 3.60043 5.5999ZM26.6404 32.1999C25.3588 32.1999 24.106 31.8304 23.0403 31.1382C21.9747 30.4459 21.1441 29.462 20.6537 28.3108C20.1632 27.1596 20.0349 25.8929 20.2849 24.6708C20.535 23.4488 21.1521 22.3262 22.0584 21.4451C22.9646 20.5641 24.1192 19.964 25.3762 19.721C26.6332 19.4779 27.9362 19.6026 29.1202 20.0795C30.3043 20.5563 31.3163 21.3638 32.0284 22.3998C32.7404 23.4358 33.1204 24.6539 33.1204 25.8999C33.1166 27.5696 32.4327 29.1699 31.2183 30.3506C30.0039 31.5313 28.3579 32.1962 26.6404 32.1999ZM26.6404 18.1999C24.954 18.1941 23.3098 18.7127 21.9481 19.6801C20.5864 20.6474 19.5786 22.0128 19.0719 23.5766C18.5652 25.1405 18.5862 26.8209 19.1318 28.3724C19.6774 29.9238 20.719 31.265 22.1044 32.1999H3.60043C3.40947 32.1999 3.22634 32.1262 3.09131 31.9949C2.95629 31.8636 2.88043 31.6856 2.88043 31.4999V12.5999H33.1204V21.4899C32.3925 20.4749 31.4232 19.6457 30.2951 19.073C29.1669 18.5002 27.9132 18.2007 26.6404 18.1999Z" fill="black"/>
<path d="M29.8377 26.6699L27.3609 25.4659V23.0999C27.3609 22.9143 27.285 22.7362 27.15 22.6049C27.015 22.4737 26.8319 22.3999 26.6409 22.3999C26.4499 22.3999 26.2668 22.4737 26.1318 22.6049C25.9968 22.7362 25.9209 22.9143 25.9209 23.0999V25.8999C25.9223 26.0308 25.9606 26.1587 26.0317 26.2698C26.1028 26.3809 26.204 26.4709 26.3241 26.5299L29.2041 27.9299C29.3035 27.9747 29.4114 27.9985 29.5209 27.9999C29.6841 28.0006 29.8427 27.9473 29.9707 27.8488C30.0987 27.7503 30.1885 27.6124 30.2253 27.4578C30.2621 27.3032 30.2438 27.1411 30.1734 26.9979C30.103 26.8547 29.9846 26.7391 29.8377 26.6699Z" fill="black"/>
</svg>
