<svg width="30" height="38" viewBox="0 0 30 38" fill="none" xmlns="http://www.w3.org/2000/svg">
<g clip-path="url(#clip0_132_93)">
<path d="M18.8835 29.9885C22.2925 25.1784 27.0079 17.4733 27.0079 11.6507C26.9818 8.57725 25.7051 5.63832 23.4559 3.47398C21.2066 1.30963 18.1671 0.0952148 14.9992 0.0952148C11.8313 0.0952148 8.79175 1.30963 6.54251 3.47398C4.29327 5.63832 3.01657 8.57725 2.99045 11.6507C2.99045 17.4749 7.70909 25.1831 11.1181 29.9916C5.14048 30.3922 0 31.7246 0 33.9285C0 36.6019 7.5459 37.9992 14.9996 37.9992C22.4533 37.9992 30 36.6011 30 33.9277C30 31.7253 24.8652 30.389 18.8835 29.9885ZM4.17848 11.6507C4.20326 8.88169 5.35438 6.23428 7.38127 4.28475C9.40816 2.33522 12.1467 1.24141 15.0008 1.24141C17.8549 1.24141 20.5935 2.33522 22.6204 4.28475C24.6473 6.23428 25.7984 8.88169 25.8232 11.6507C25.8232 19.165 17.1211 30.5331 15.0004 33.1907C12.8806 30.5331 4.17848 19.1682 4.17848 11.6507ZM14.9996 36.8481C6.56757 36.8481 1.18639 35.1192 1.18639 33.9285C1.18639 32.8922 5.29061 31.4562 11.9202 31.1023C13.3408 33.0411 14.3999 34.3188 14.5386 34.485C14.5944 34.5513 14.6646 34.6047 14.7443 34.6413C14.824 34.678 14.911 34.697 14.9992 34.697C15.0873 34.697 15.1744 34.678 15.2541 34.6413C15.3337 34.6047 15.404 34.5513 15.4598 34.485C15.5985 34.318 16.6584 33.0395 18.0814 31.0992C24.711 31.453 28.812 32.893 28.812 33.9285C28.8136 35.1192 23.4324 36.8481 14.9996 36.8481Z" fill="black"/>
<path d="M21.5269 11.7546C21.5269 10.502 21.144 9.27754 20.4268 8.23605C19.7095 7.19456 18.69 6.38282 17.4973 5.90348C16.3045 5.42413 14.992 5.29871 13.7258 5.54308C12.4596 5.78745 11.2965 6.39063 10.3836 7.27634C9.47067 8.16206 8.84898 9.29052 8.59711 10.519C8.34524 11.7476 8.47451 13.021 8.96857 14.1782C9.46262 15.3354 10.2993 16.3246 11.3727 17.0205C12.4462 17.7164 13.7082 18.0878 14.9993 18.0878C16.7299 18.0859 18.3891 17.4181 19.6128 16.2308C20.8366 15.0435 21.5249 13.4337 21.5269 11.7546ZM9.65889 11.7546C9.65873 10.7296 9.97187 9.72757 10.5587 8.87525C11.1455 8.02293 11.9797 7.3586 12.9557 6.96628C13.9317 6.57395 15.0057 6.47126 16.0419 6.67119C17.0781 6.87112 18.0299 7.36469 18.7769 8.08947C19.5239 8.81425 20.0326 9.7377 20.2387 10.743C20.4448 11.7483 20.3389 12.7903 19.9346 13.7373C19.5302 14.6842 18.8455 15.4936 17.967 16.0629C17.0885 16.6323 16.0557 16.9361 14.9993 16.9359C13.5836 16.9338 12.2265 16.3873 11.2254 15.416C10.2244 14.4448 9.66105 13.1281 9.65889 11.7546Z" fill="black"/>
</g>
<defs>
<clipPath id="clip0_132_93">
<rect width="30" height="38" fill="black"/>
</clipPath>
</defs>
</svg>
