<svg width="725" height="367" viewBox="0 0 725 367" fill="none" xmlns="http://www.w3.org/2000/svg">
<g clip-path="url(#clip0_164_361)">
<path d="M85.3435 95.6399C76.9435 121.24 39.8435 159.307 22.3435 175.14C41.1768 168.473 82.2435 148.54 95.8435 122.14C109.443 95.74 135.843 80.4733 147.343 76.14C193.743 58.14 233.677 56.3066 247.843 57.64C301.844 50.04 372.01 87.8066 400.344 107.64L435.844 130.14C453.844 142.94 505.344 152.473 528.844 155.64C598.443 172.84 635.51 211.807 645.344 229.14L646.344 229.64H647.344H648.344H649.344L649.844 228.64V227.64V226.64C633.844 181.04 582.51 150.973 558.844 141.64L558.344 140.14L558.844 139.14C614.844 121.14 682.51 155.973 709.344 175.64H710.344H711.344L711.844 174.64V172.64V171.64L711.344 170.14L709.344 167.64C653.344 100.84 561.677 107.14 522.844 118.64C482.044 137.04 457.844 123.307 450.844 114.14C418.044 86.54 380.51 62.6399 365.844 54.1399C219.344 -9.36006 95.8435 63.6399 85.3435 95.6399Z" fill="#FF0000"/>
<path d="M305.344 184.64C290.944 165.44 186.343 137.307 137.843 138.64C215.843 118.64 240.843 122.14 263.843 124.14C282.243 125.74 300.51 131.14 307.344 133.64C346.944 150.44 377.51 195.973 387.844 216.64V217.5V218V219V242.64C333.844 198.24 310.344 185.473 305.344 184.64Z" fill="#FF0000"/>
<path d="M552.344 220.64C545.943 225.44 486.344 237.307 457.344 242.64C513.844 245.14 524.844 247.14 564.844 237.14C596.844 229.14 578.177 203.807 564.844 192.14C564.844 214.64 560.344 214.64 552.344 220.64Z" fill="#FF0000"/>
<path d="M34.3435 238.64L36.8435 243.14L39.3435 247.14H40.3435H41.3435L41.8435 246.64L42.3435 246.14L42.8435 245.14L43.8435 243.14C43.0435 220.74 32.5102 211.14 27.3435 209.14C25.6768 207.807 20.9435 206.64 15.3435 212.64C9.74351 218.64 7.01009 247.473 6.34338 261.14C4.67671 280.307 8.24338 319.14 35.8434 321.14C63.4434 323.14 78.01 300.973 81.8434 289.64L137.843 292.14C178.644 392.54 269.843 357.973 315.343 328.14L519.843 323.64C551.043 338.04 575.51 341.973 583.843 342.14C622.243 340.14 642.177 313.307 647.344 300.14C585.744 318.14 534.677 305.307 516.843 296.64L316.843 307.64C296.043 257.24 266.51 235.64 254.343 231.14C274.843 262.14 281.343 278.14 282.343 295.14C283.143 308.74 277.343 318.807 274.343 322.14C197.143 365.74 166.843 303.973 161.343 267.64C158.143 251.24 169.01 227.473 174.843 217.64C186.443 196.04 209.677 195.307 219.843 197.64C231.843 196.44 229.51 191.807 226.843 189.64L207.843 178.64C175.843 165.04 163.843 172.307 161.843 177.64V191.64L159.343 199.14L137.843 233.64V236.14V249.64C137.043 266.04 132.843 271.473 130.843 272.14L61.3434 276.64L58.8434 277.64L55.3434 279.14L54.3434 280.64C50.8434 292.14 49.8434 291.14 47.8434 294.64C46.2434 297.44 41.5101 297.14 39.3435 296.64C10.9435 271.04 22.5102 244.973 31.8435 235.14L34.3435 238.64Z" fill="#FF0000"/>
<path d="M34.3435 238.64L36.8435 243.14L39.3435 247.14H40.3435H41.3435L41.8435 246.64L42.3435 246.14L42.8435 245.14L43.8435 243.14C43.0435 220.74 32.5102 211.14 27.3435 209.14C25.6768 207.807 20.9435 206.64 15.3435 212.64C9.74351 218.64 7.01009 247.473 6.34338 261.14C4.67671 280.307 8.24338 319.14 35.8434 321.14C63.4434 323.14 78.01 300.973 81.8434 289.64L137.843 292.14C178.644 392.54 269.843 357.973 315.343 328.14L519.843 323.64C551.043 338.04 575.51 341.973 583.843 342.14C622.243 340.14 642.177 313.307 647.344 300.14C585.744 318.14 534.677 305.307 516.843 296.64L316.843 307.64C296.043 257.24 266.51 235.64 254.343 231.14C274.843 262.14 281.343 278.14 282.343 295.14C283.143 308.74 277.343 318.806 274.343 322.14C197.143 365.74 166.843 303.973 161.343 267.64C158.143 251.24 169.01 227.473 174.843 217.64C186.443 196.04 209.677 195.307 219.843 197.64C231.843 196.44 229.51 191.807 226.843 189.64L207.843 178.64C175.843 165.04 163.843 172.307 161.843 177.64V191.64L159.343 199.14L137.843 233.64V236.14V249.64C137.043 266.04 132.843 271.473 130.843 272.14L61.3434 276.64L58.8434 277.64L55.3434 279.14L54.3434 280.64C50.8434 292.14 49.8434 291.14 47.8434 294.64C46.2434 297.44 41.5101 297.14 39.3435 296.64C10.9435 271.04 22.5102 244.973 31.8435 235.14L34.3435 238.64Z" fill="white"/>
</g>
<defs>
<clipPath id="clip0_164_361">
<rect width="725" height="367" fill="white"/>
</clipPath>
</defs>
</svg>
